<svg id="Layer_1" data-name="Layer 1" xmlns="http://www.w3.org/2000/svg" viewBox="0 0 1018.88 1024.24">
  <defs>
    <style>
      .cls-1 {
        fill: #5b873c;
      }
    </style>
  </defs>
  <g>
    <g id="chu">
      <g>
        <path class="cls-1" d="M4.59,419a2.56,2.56,0,0,1-1.82-3.14l14-53a2.51,2.51,0,0,1,3.12-1.8l10.66,2.81a2.51,2.51,0,0,1,1.58,1.18,2.48,2.48,0,0,1,.24,2L22.22,405.52l21.33,5.65L52.05,379a2.54,2.54,0,0,1,3.14-1.82L66,380.07a2.5,2.5,0,0,1,1.56,1.19,2.41,2.41,0,0,1,.25,1.93l-8.51,32.14,22.78,6,10.19-38.52a2.42,2.42,0,0,1,1.17-1.56,2.49,2.49,0,0,1,2-.25l10.66,2.82a2.51,2.51,0,0,1,1.82,3.12l-14,53a2.52,2.52,0,0,1-1.18,1.57,2.47,2.47,0,0,1-1.94.25Z" transform="translate(-2.68 0)"/>
        <path class="cls-1" d="M73,344.43a47.49,47.49,0,0,1-15.14-12.07,48.29,48.29,0,0,1-11.2-34.69,50.61,50.61,0,0,1,16.25-33.19,50.09,50.09,0,0,1,15-8.73c1.73-.62,2.87-.1,3.42,1.6l3.8,11.17q.83,2.24-1.53,3a32.72,32.72,0,0,0-9.63,6,30.45,30.45,0,0,0-6.89,8.87,28.89,28.89,0,0,0-1.51,23.34,32.54,32.54,0,0,0,15.74,17.67A31.68,31.68,0,0,0,93,330.78a31.2,31.2,0,0,0,11.68-1.13A30.06,30.06,0,0,0,115,324.22a30.48,30.48,0,0,0,10.9-20.43,36.89,36.89,0,0,0-.68-10.93,2.73,2.73,0,0,1,.2-1.86,2.24,2.24,0,0,1,1.34-1.13l11.48-3.5a1.88,1.88,0,0,1,1.91.23,2.81,2.81,0,0,1,1.25,1.55,43.42,43.42,0,0,1,1.84,18.11,49,49,0,0,1-5.12,16.95,48.59,48.59,0,0,1-28.2,24.2,49.3,49.3,0,0,1-18.38,2.22A46.81,46.81,0,0,1,73,344.43Z" transform="translate(-2.68 0)"/>
        <path class="cls-1" d="M125.56,247.62a48.54,48.54,0,0,1-16.64-33.22,49.4,49.4,0,0,1,2.3-18.38,48.51,48.51,0,0,1,24.89-28.48,50.34,50.34,0,0,1,17.95-4.77,47.61,47.61,0,0,1,18.42,2.33,48.14,48.14,0,0,1,16.76,9.66,47.8,47.8,0,0,1,16.5,33.18,49.3,49.3,0,0,1-2.39,18.38,49.41,49.41,0,0,1-24.9,28.48,47.88,47.88,0,0,1-36.17,2.43A47.67,47.67,0,0,1,125.56,247.62Zm11.51-13.17a30.16,30.16,0,0,0,10.62,6.05A30.58,30.58,0,0,0,170.86,239a30.86,30.86,0,0,0,15.77-18,31.8,31.8,0,0,0,1.54-11.79,30.47,30.47,0,0,0-3-11.48,30.86,30.86,0,0,0-18-15.77,31.27,31.27,0,0,0-11.83-1.49,32.19,32.19,0,0,0-11.58,3,30.13,30.13,0,0,0-15.77,18,31.18,31.18,0,0,0-1.39,11.83,31.57,31.57,0,0,0,3.1,11.48A30.21,30.21,0,0,0,137.07,234.45Z" transform="translate(-2.68 0)"/>
        <path class="cls-1" d="M191.87,116a2.54,2.54,0,0,1,.56-3.58l10-7.3a2.53,2.53,0,0,1,1.91-.47,2.43,2.43,0,0,1,1.66,1l44.51,61,27.72-20.23a2.48,2.48,0,0,1,1.91-.47,2.45,2.45,0,0,1,1.66,1l6.51,8.91a2.55,2.55,0,0,1-.56,3.59l-39.81,29a2.4,2.4,0,0,1-1.89.47,2.5,2.5,0,0,1-1.68-1Z" transform="translate(-2.68 0)"/>
        <path class="cls-1" d="M268.46,65.7a2.52,2.52,0,0,1,1.08-3.45l11.1-5.8a2.54,2.54,0,0,1,3.45,1.08l41.27,79a2.47,2.47,0,0,1,.19,1.95,2.51,2.51,0,0,1-1.27,1.5l-11.09,5.8a2.53,2.53,0,0,1-2,.18,2.48,2.48,0,0,1-1.5-1.27Z" transform="translate(-2.68 0)"/>
        <path class="cls-1" d="M327,37.77a2.51,2.51,0,0,1,.12-2,2.44,2.44,0,0,1,1.49-1.28l51.91-17.48a2.55,2.55,0,0,1,3.24,1.6l3.53,10.46a2.53,2.53,0,0,1-1.61,3.25L347.88,45.07l8.07,24,31.51-10.61a2.55,2.55,0,0,1,3.24,1.61l3.52,10.46a2.54,2.54,0,0,1-1.61,3.24L361.1,84.35,372,116.63a2.54,2.54,0,0,1-1.6,3.25l-11.74,3.94a2.54,2.54,0,0,1-3.25-1.61Z" transform="translate(-2.68 0)"/>
        <path class="cls-1" d="M425,9.84A2.51,2.51,0,0,1,427.23,7l54.33-7a2.55,2.55,0,0,1,2.87,2.22l1.39,11a2.55,2.55,0,0,1-2.22,2.86L444.09,21.1,446.89,43l33-4.21A2.53,2.53,0,0,1,482.73,41l1.41,11.08a2.51,2.51,0,0,1-2.21,2.86l-33,4.22,3,23.36,39.51-5.05a2.53,2.53,0,0,1,1.9.51,2.49,2.49,0,0,1,1,1.71l1.39,10.94a2.4,2.4,0,0,1-.51,1.89,2.46,2.46,0,0,1-1.71,1l-54.32,6.94a2.53,2.53,0,0,1-2.87-2.21Z" transform="translate(-2.68 0)"/>
      </g>
      <g>
        <path class="cls-1" d="M631.38,111.46a40.19,40.19,0,0,0,10.37,1.47,28.41,28.41,0,0,0,10.62-2,32,32,0,0,0,14.78-12.16L669,96.08l-3.16-.84-6.58-.17a23.45,23.45,0,0,1-4.55,4.86,20,20,0,0,1-5.81,3.17,24.4,24.4,0,0,1-7.83,1.28,28.6,28.6,0,0,1-7.49-1.07,22.6,22.6,0,0,1-8.32-4.1,21.08,21.08,0,0,1-5.72-6.8,23.71,23.71,0,0,1-2.65-9.16,31.86,31.86,0,0,1,1.08-11.16,31.43,31.43,0,0,1,4.67-10.26,24.13,24.13,0,0,1,6.87-6.63,21.91,21.91,0,0,1,11.41-3.26,24.59,24.59,0,0,1,6.21.84A29.21,29.21,0,0,1,654.79,56a22.78,22.78,0,0,1,5.44,4.65,21.71,21.71,0,0,1,3.44,5.76c.8,2,1.31,4.2,3.22,8.51l7.18,1.94-.17-3.24a31.92,31.92,0,0,0-6.67-18c-4-5.17-10.08-8.84-18-11a33.19,33.19,0,0,0-8.69-1.2,28.59,28.59,0,0,0-4.44.35,30,30,0,0,0-11.71,4.37,33.34,33.34,0,0,0-9.22,8.9,39.44,39.44,0,0,0-5.84,12.74,40,40,0,0,0-1.34,14,32.89,32.89,0,0,0,3.59,12.32,30.12,30.12,0,0,0,8,9.55A31.69,31.69,0,0,0,631.38,111.46Z" transform="translate(-2.68 0)"/>
        <path class="cls-1" d="M695.88,132.3a28.59,28.59,0,0,0,8.54,6.14,28.21,28.21,0,0,0,10.14,2.76l1.94.09a23.6,23.6,0,0,0,8-1.38,25.86,25.86,0,0,0,8.8-5.4,31.05,31.05,0,0,0,6.69-9.43A30.56,30.56,0,0,0,743,114a25.33,25.33,0,0,0-1.34-10.2,24.38,24.38,0,0,0-5.24-8.57,28.8,28.8,0,0,0-8.52-6.12,30.26,30.26,0,0,0-12.07-2.85,24.34,24.34,0,0,0-8,1.38A25.12,25.12,0,0,0,699.13,93a29.7,29.7,0,0,0-6.69,9.35,30.14,30.14,0,0,0-3.11,11.16,25.89,25.89,0,0,0,1.31,10.21A24.32,24.32,0,0,0,695.88,132.3Zm2-17.67a21.86,21.86,0,0,1,2.36-8.5,22.7,22.7,0,0,1,5.1-7.17,16.83,16.83,0,0,1,6.1-3.58,15.51,15.51,0,0,1,4.72-.74l1.74.1a19.86,19.86,0,0,1,6.43,1.83,19.53,19.53,0,0,1,5.56,3.9,15.79,15.79,0,0,1,3.59,5.42,16.47,16.47,0,0,1,1,6.92,23.26,23.26,0,0,1-2.42,8.53,22.76,22.76,0,0,1-5.1,7.22,16.46,16.46,0,0,1-6,3.62,15.65,15.65,0,0,1-5.24.69H714.5A20,20,0,0,1,708,131a19.43,19.43,0,0,1-5.49-3.87,14.74,14.74,0,0,1-3.53-5.44A16.64,16.64,0,0,1,697.93,114.63Z" transform="translate(-2.68 0)"/>
        <path class="cls-1" d="M772.51,142.53a26.08,26.08,0,0,1,5.87-5.81c1.93-1.34,3.87-2.18,8-2.77a11.55,11.55,0,0,1,3.13.45,15.5,15.5,0,0,1,5.32,2.76,12.69,12.69,0,0,1,5.41,8.77c.37,3.44-1.08,7.33-4.3,11.59l-18.59,24.32,6.92,5.26,17.17-22.46a26.29,26.29,0,0,1,5.89-5.83c1.88-1.31,3.79-2.16,7.95-2.74a11.41,11.41,0,0,1,3.22.47,16.2,16.2,0,0,1,5.35,2.74c3.19,2.45,4.93,5.3,5.3,8.73s-1.09,7.31-4.33,11.55l-18.57,24.32,6.92,5.29,18.65-24.47a30.49,30.49,0,0,0,5-9.18,20.4,20.4,0,0,0,.94-8.62,17.56,17.56,0,0,0-2.7-7.64,22.9,22.9,0,0,0-5.56-6,24.56,24.56,0,0,0-5.92-3.35,21,21,0,0,0-7.09-1.29,20.38,20.38,0,0,0-6.52,1.06l-1.22.46a17.22,17.22,0,0,0-.46-8.1,21.06,21.06,0,0,0-7.63-10.79A21.85,21.85,0,0,0,795,128a21,21,0,0,0-7.06-1.38,19.15,19.15,0,0,0-3.62.36l3.39-4.45-6.92-5.26-32.4,42.44,7,5.25Z" transform="translate(-2.68 0)"/>
        <path class="cls-1" d="M835.53,232.51l22-17.71a26.31,26.31,0,0,1,7.12-4.26,16.27,16.27,0,0,1,6-1.08h.14a11.28,11.28,0,0,1,5.22,1.51,16.07,16.07,0,0,1,4.52,4c2.54,3.17,3.56,6.37,3.11,9.78s-2.79,6.9-6.92,10.22l-23.87,19.18,5.47,6.78,22-17.7a26.57,26.57,0,0,1,7.12-4.26,16.17,16.17,0,0,1,6-1.1h.14a11.48,11.48,0,0,1,5.21,1.54,16.07,16.07,0,0,1,4.53,4,12.3,12.3,0,0,1,3.08,9.72c-.46,3.41-2.82,6.82-7,10.17l-23.83,19.18,5.43,6.8,24-19.3a30.34,30.34,0,0,0,7.09-7.71,20.54,20.54,0,0,0,3-8.15,18.26,18.26,0,0,0-.8-8,22.42,22.42,0,0,0-4-7.16,23.26,23.26,0,0,0-5-4.66,20.08,20.08,0,0,0-6.15-2.9,21.16,21.16,0,0,0-5.72-.6c-.4,0-2.14.09-2.56.16a17.64,17.64,0,0,0,1.5-8,21.33,21.33,0,0,0-4.84-12.32,25.35,25.35,0,0,0-4.75-4.45,20.61,20.61,0,0,0-5.87-2.85,16.71,16.71,0,0,0-4.33-.65l4.42-3.55-5.47-6.78L830.12,225.7Z" transform="translate(-2.68 0)"/>
        <path class="cls-1" d="M901.13,312a24.59,24.59,0,0,0-1,10,28.62,28.62,0,0,0,3,10.07,28.11,28.11,0,0,0,6.35,8.37,24.2,24.2,0,0,0,16.34,6.2l2.59-.12a33.49,33.49,0,0,0,20.22-10.31,25.42,25.42,0,0,0,5.18-8.9,24.45,24.45,0,0,0,1.06-10,29.74,29.74,0,0,0-9.4-18.41,24.25,24.25,0,0,0-8.68-5,26,26,0,0,0-8.49-1.08l-1.77,0a30.14,30.14,0,0,0-11,3.36,30.74,30.74,0,0,0-9.28,7A25.42,25.42,0,0,0,901.13,312Zm28.18-12.81.16,0v2.06a16.5,16.5,0,0,1,5.46.89,16,16,0,0,1,5.53,3.45,19.94,19.94,0,0,1,4,5.37,20.22,20.22,0,0,1,2,6.49A16,16,0,0,1,946,324a16.48,16.48,0,0,1-3.42,6.13,23,23,0,0,1-7.09,5.28,24.14,24.14,0,0,1-10.13,2.69,15.81,15.81,0,0,1-5.33-.88,15,15,0,0,1-5.52-3.41,20,20,0,0,1-4.08-5.46,19.63,19.63,0,0,1-2-6.38,16.19,16.19,0,0,1,.49-6.48,17.64,17.64,0,0,1,3.5-6.22,22,22,0,0,1,7-5.28,22.54,22.54,0,0,1,8.46-2.6Z" transform="translate(-2.68 0)"/>
        <path class="cls-1" d="M926.79,385.32l27-8.4A27.2,27.2,0,0,1,962,375.6h0a14.87,14.87,0,0,1,6.18,1.37,12.14,12.14,0,0,1,4.39,3.51,17.6,17.6,0,0,1,2.9,5.59c1.31,4.15,1.11,7.73-.6,10.93s-5.12,5.58-10.22,7.18l-29.19,9.07,2.57,8.31,29.36-9.13a28.89,28.89,0,0,0,9.45-4.69,20.78,20.78,0,0,0,5.67-6.65,18.28,18.28,0,0,0,2.1-8,26.1,26.1,0,0,0-4-14.47,20.51,20.51,0,0,0-4.47-5,18.6,18.6,0,0,0-4-2.42l5.55-1.72-2.59-8.3L924.23,377Z" transform="translate(-2.68 0)"/>
        <path class="cls-1" d="M921.86,457.58l30.27-3.94a21.81,21.81,0,0,0-2.93,4,22.26,22.26,0,0,0-2.59,7.17,25.27,25.27,0,0,0-.17,8.32A27.21,27.21,0,0,0,949.6,483a23,23,0,0,0,6.49,7.37,24.38,24.38,0,0,0,9.34,4.13,29.76,29.76,0,0,0,6.58.7,36.12,36.12,0,0,0,4.87-.33,31.78,31.78,0,0,0,10.91-3.29,24.86,24.86,0,0,0,7.91-6.37,22.54,22.54,0,0,0,4.36-8.82,27,27,0,0,0,.54-10.39,25.9,25.9,0,0,0-2.28-8A21.46,21.46,0,0,0,994,451.7a22.28,22.28,0,0,0-3.76-3.06l7.4-.91-1.11-8.66L920.75,449Zm50.21,28.89a22.39,22.39,0,0,1-4.67-.48,16.46,16.46,0,0,1-6.3-2.74,14.74,14.74,0,0,1-4.32-4.92,19.75,19.75,0,0,1-2.28-7.12,19,19,0,0,1,.42-7.21,16.53,16.53,0,0,1,3-6,17.45,17.45,0,0,1,5.47-4.46,22,22,0,0,1,7.75-2.39,23.38,23.38,0,0,1,3.27-.23,20.25,20.25,0,0,1,4.81.56,18.19,18.19,0,0,1,6.38,2.89,16.85,16.85,0,0,1,4.47,5,18.88,18.88,0,0,1,2.25,6.85,20.22,20.22,0,0,1-.34,7.47,15.66,15.66,0,0,1-2.93,5.87,16.65,16.65,0,0,1-5.41,4.27,23.59,23.59,0,0,1-7.89,2.33A26.81,26.81,0,0,1,972.07,486.47Z" transform="translate(-2.68 0)"/>
        <polygon class="cls-1" points="947.86 531.26 1018.88 530.12 1018.76 521.42 947.66 522.58 947.86 531.26"/>
        <path class="cls-1" d="M995.73,569a24.74,24.74,0,0,0-7.89-6.38,32.09,32.09,0,0,0-10.93-3.27,35.53,35.53,0,0,0-4.84-.34,30,30,0,0,0-6.61.71,25.18,25.18,0,0,0-9.34,4.14,23.71,23.71,0,0,0-6.49,7.4,27.44,27.44,0,0,0-3.13,9.91,26.09,26.09,0,0,0,.14,8.35,22.51,22.51,0,0,0,2.62,7.13,20.2,20.2,0,0,0,2.9,4l-7.46-1-1.11,8.61,53,6.88,1.11-8.64-7.44-1a21.21,21.21,0,0,0,3.79-3.09,22.71,22.71,0,0,0,4.36-6.25,28.68,28.68,0,0,0,1.74-18.44A23.22,23.22,0,0,0,995.73,569Zm-10.08,30.94a17.34,17.34,0,0,1-6.35,2.88,20.39,20.39,0,0,1-4.7.52,27.8,27.8,0,0,1-3.36-.21,23.64,23.64,0,0,1-7.8-2.36,16.82,16.82,0,0,1-5.44-4.43,16.27,16.27,0,0,1-3-6,20.23,20.23,0,0,1,1.85-14.41,15.53,15.53,0,0,1,4.33-5,15.86,15.86,0,0,1,6.29-2.75,22,22,0,0,1,4.53-.44,28.41,28.41,0,0,1,3.82.26,24,24,0,0,1,7.94,2.3,15.49,15.49,0,0,1,5.36,4.22,16.53,16.53,0,0,1,2.93,6,20.59,20.59,0,0,1,.34,7.53,18.34,18.34,0,0,1-2.25,6.9A16.3,16.3,0,0,1,985.65,599.89Z" transform="translate(-2.68 0)"/>
        <path class="cls-1" d="M974.37,644.2a31.92,31.92,0,0,0-10.22-5.11,34.31,34.31,0,0,0-10.91-1.61h-.45a24.52,24.52,0,0,0-9.94,2.59,23.91,23.91,0,0,0-7.69,6.35,27.41,27.41,0,0,0-4.81,9.28,29.79,29.79,0,0,0-1.45,9.37,24.71,24.71,0,0,0,1.59,8.33,20.49,20.49,0,0,0,4.36,6.93,24.22,24.22,0,0,0,6.75,5l2.48,1.22,2.59-8.54-1.74-.88a13,13,0,0,1-6.83-7.59,18.14,18.14,0,0,1,.14-11.46,20.52,20.52,0,0,1,3-5.9,14.72,14.72,0,0,1,4.84-4.14c1.91-1,4.16-1.64,8.11-1.91a25.17,25.17,0,0,1,7.35,1.25,23.6,23.6,0,0,1,7.89,4,17.24,17.24,0,0,1,4.5,5.33,14.27,14.27,0,0,1,1.59,6.17,19.39,19.39,0,0,1-.85,6.58,17.93,17.93,0,0,1-6.41,9.47c-2.11,1.58-4.41,2.4-8.71,2.4h-1.2l-2-.29-2.65,8.56,2.73.37a23.14,23.14,0,0,0,3.42.24,22.29,22.29,0,0,0,4.87-.52,20.64,20.64,0,0,0,7.52-3.26,25.2,25.2,0,0,0,6.06-5.94,29.2,29.2,0,0,0,4.19-8.52,28.83,28.83,0,0,0,1.28-10.39A24.18,24.18,0,0,0,981,652,24.5,24.5,0,0,0,974.37,644.2Z" transform="translate(-2.68 0)"/>
        <path class="cls-1" d="M948.89,717.58a31,31,0,0,0-9.23-6.81c-3.79-1.9-7.49-3.06-13.84-3.57a24.26,24.26,0,0,0-7.34,1.11,23.57,23.57,0,0,0-8.63,5,27.71,27.71,0,0,0-6.35,8.36,29.06,29.06,0,0,0-3,9,23.18,23.18,0,0,0,.14,8.44,21.19,21.19,0,0,0,3.08,7.51,22.8,22.8,0,0,0,5.66,5.93l2.19,1.61,4.13-8-1.62-1.17a13,13,0,0,1-5.41-8.56,17.68,17.68,0,0,1,2.05-11.29,19.41,19.41,0,0,1,3.87-5.22,15.35,15.35,0,0,1,5.27-3.36,15.91,15.91,0,0,1,6-.86c.23,0,.46,0,.68,0a19.43,19.43,0,0,1,6,1.42l-17.85,35.28.85,3,1.65,1.16,2.57,1.47a23.66,23.66,0,0,0,8.57,2.49l2.3.12a22.74,22.74,0,0,0,15-5.63,27.72,27.72,0,0,0,6.58-8.65,28.79,28.79,0,0,0,3-10.09,24.23,24.23,0,0,0-1.11-9.93A25.27,25.27,0,0,0,948.89,717.58Zm-1.74,18.78a20.16,20.16,0,0,1-2,6.35,21,21,0,0,1-3.82,5.27,14.53,14.53,0,0,1-5.24,3.29,14.91,14.91,0,0,1-5.41.74c-.37,0-.74,0-1.14,0a17.77,17.77,0,0,1-5.81-1.68l15.15-30a19.47,19.47,0,0,1,4.62,3.93,16,16,0,0,1,3.21,5.88A15.35,15.35,0,0,1,947.15,736.36Z" transform="translate(-2.68 0)"/>
        <path class="cls-1" d="M897.2,826.9a16.76,16.76,0,0,0-10.84-4.63,20.88,20.88,0,0,0-8.23,1.7,43.34,43.34,0,0,0-8.26,4.52,58.26,58.26,0,0,1-7.38,4.29,15.6,15.6,0,0,1-6.72,1.66c-2,0-4-.93-6.15-2.81a11.64,11.64,0,0,1-2.65-3.22,9.55,9.55,0,0,1-1.11-3.65,9.85,9.85,0,0,1,.63-4.15,14,14,0,0,1,2.73-4.52,15.1,15.1,0,0,1,5-3.9,15.61,15.61,0,0,1,6.18-1.45,11,11,0,0,1,3.19.44,13.59,13.59,0,0,1,3.41,1.51l1.71,1.07,5.78-6.68-2.13-1.48a20.59,20.59,0,0,0-6.78-3,18.85,18.85,0,0,0-4.44-.52l-3.22.25a24,24,0,0,0-7.66,2.72,26,26,0,0,0-7,5.85,23.31,23.31,0,0,0-4.82,8,17.79,17.79,0,0,0-.91,7.64,17.48,17.48,0,0,0,2.19,6.74,21.24,21.24,0,0,0,4.19,5.14,18.18,18.18,0,0,0,11.65,4.87,20.45,20.45,0,0,0,7.8-1.56,43.13,43.13,0,0,0,8.29-4.54,55.39,55.39,0,0,1,7.31-4.28,17.44,17.44,0,0,1,6.87-1.77,8.85,8.85,0,0,1,5.61,2.56c2.45,2.14,3.61,4.43,3.56,7a12.69,12.69,0,0,1-3.53,8,14.4,14.4,0,0,1-4.42,3.6,12.69,12.69,0,0,1-4.3,1.39l-3.84-.15a12.54,12.54,0,0,1-3.05-1.1l-1.65-.9-5.9,6.81,2.45,1.41a21.37,21.37,0,0,0,5.84,2.22,18.63,18.63,0,0,0,4,.44l2.93-.23a21,21,0,0,0,7.15-2.52A25.94,25.94,0,0,0,897.4,854a23.54,23.54,0,0,0,4.56-7.32,19,19,0,0,0,1.37-7.35,17.07,17.07,0,0,0-1.71-6.79A18.55,18.55,0,0,0,897.2,826.9Z" transform="translate(-2.68 0)"/>
        <path class="cls-1" d="M820.89,853.2a22.35,22.35,0,0,0-10.11-2.82,18.68,18.68,0,0,0-6.41,1.14,25.28,25.28,0,0,0-11.9,9.24A20.38,20.38,0,0,0,789,871.48L785.21,867l-6.66,5.59,34.31,41,6.66-5.61-18.08-21.58a27.07,27.07,0,0,1-4.44-7.15,14.86,14.86,0,0,1-1.14-6.24,12.32,12.32,0,0,1,1.51-5.37,17.67,17.67,0,0,1,4.07-4.78,14.57,14.57,0,0,1,10-3.67h.29c3.53.33,7.06,2.56,10.48,6.63l19.64,23.47,6.67-5.58-19.68-23.54A30.2,30.2,0,0,0,820.89,853.2Z" transform="translate(-2.68 0)"/>
        <path class="cls-1" d="M771.71,913.66a16.46,16.46,0,0,0-4.81-.69l-3,.24a44.07,44.07,0,0,0-7.69,2,56.28,56.28,0,0,1-6.89,2,11.29,11.29,0,0,1-2.76.28c-.69,0-1.54,0-2.65-.11a5.5,5.5,0,0,1-3.45-2.86,7.46,7.46,0,0,1-1-5.75c.51-1.94,2-3.69,4.55-5.21a16.13,16.13,0,0,1,5.24-2.18l4.5-.16a9.57,9.57,0,0,1,3.73,1.42,10.7,10.7,0,0,1,2.91,2.68l1.28,1.7,7.54-4.58-1.68-2.07c-3.39-4.18-7.57-6.61-15-7.41a24.07,24.07,0,0,0-12.48,3.88c-4.41,2.63-7.26,6-8.45,10a14,14,0,0,0,1.53,11.94c1.88,3.15,4.22,5.2,6.87,6.08a15.72,15.72,0,0,0,5.52.74c.74,0,1.54,0,2.45,0a39.78,39.78,0,0,0,7.77-2,62.46,62.46,0,0,1,6.87-2.1,12.69,12.69,0,0,1,3.24-.34c.6,0,1.28,0,2.14.06a5,5,0,0,1,3.24,2.66,6.8,6.8,0,0,1,.86,5.78c-.57,2-2.25,3.86-4.93,5.5a13.36,13.36,0,0,1-4.64,1.83l.37,2.31L758.47,937a10.57,10.57,0,0,1-3.56-1.52,12.73,12.73,0,0,1-2.9-2.78l-1.28-1.65-7.35,4.44L745,937.6a19.62,19.62,0,0,0,11.85,7.53l3.16.3a21.54,21.54,0,0,0,11.19-3.49c4.53-2.72,7.49-6.12,8.85-10.14a13.94,13.94,0,0,0-1.53-12.21C776.69,916.47,774.39,914.48,771.71,913.66Z" transform="translate(-2.68 0)"/>
        <path class="cls-1" d="M728.26,955.68l-7.09,3.15L709.35,932.3c-2.36-5.29-5.18-8.47-8.6-9.71a11.78,11.78,0,0,0-4-.67,19.37,19.37,0,0,0-7.85,1.91l-7.27,3.22,3.42,7.53,6.81-3a10,10,0,0,1,4.44-1c.37,0,.74,0,1.17.06.71.26,2.19,1.28,3.9,5.21l11.9,26.57-13.18,5.89,3.33,7.56,13.21-5.91,5.07,11.31,7.92-3.53-5-11.32,7-3.15Z" transform="translate(-2.68 0)"/>
        <path class="cls-1" d="M668.2,949.2a24.53,24.53,0,0,0-7.52-6.9c-2.87-1.64-6-2.65-11.84-3.12a28.26,28.26,0,0,0-7.86,1.17,26.28,26.28,0,0,0-7.63,3.5,22.16,22.16,0,0,0-5.47,5.21,21.85,21.85,0,0,0-2.53,4.27l-2.08-7.22-8.35,2.42,14.81,51.27,8.4-2.37L636,990.21a22.75,22.75,0,0,0,4.39,2.26,24.68,24.68,0,0,0,8.26,1.5,28.89,28.89,0,0,0,16.77-5.77,22.62,22.62,0,0,0,6.32-7.53,24.56,24.56,0,0,0,2.71-9.81,35.09,35.09,0,0,0-6.27-21.66Zm-38.44,14.52a17.65,17.65,0,0,1,1.85-6.73,16.62,16.62,0,0,1,4.36-5.2,18.24,18.24,0,0,1,6.46-3.27,21,21,0,0,1,5.78-.88l1.68.08a16,16,0,0,1,6.32,2,15.46,15.46,0,0,1,5,4.67,25.11,25.11,0,0,1,3.51,7.55,24.62,24.62,0,0,1,1,8.24,15.15,15.15,0,0,1-6.07,11.67,20,20,0,0,1-12.55,4l-1.4,0a16.29,16.29,0,0,1-6.41-2.07,16.68,16.68,0,0,1-5.18-4.67,24.56,24.56,0,0,1-4.44-15.38Z" transform="translate(-2.68 0)"/>
        <polygon class="cls-1" points="595.67 1014.46 594.93 1013.88 591.43 1012.9 590.66 1012.9 587.33 1014.33 586.73 1015.11 585.56 1018.47 585.71 1019.42 587.19 1022.7 588.04 1023.28 590.55 1024.24 591.26 1024.24 592.31 1024.15 595.53 1022.78 596.13 1022.03 597.32 1018.68 597.15 1017.67 595.67 1014.46"/>
        <polygon class="cls-1" points="585.9 952.9 577.3 954.19 585.25 1006.99 593.88 1005.67 585.9 952.9"/>
        <path class="cls-1" d="M544.76,957.9l.71,28.26a25.64,25.64,0,0,1-.94,8.29,15.58,15.58,0,0,1-3,5.57,13,13,0,0,1-4.61,3.31,18.16,18.16,0,0,1-6.72,1.26,13.47,13.47,0,0,1-9.8-3.59c-2.59-2.49-4-6.45-4.1-11.76l-.77-30.58-8.71.21.77,30.77a29,29,0,0,0,1.94,10.36,20.31,20.31,0,0,0,4.86,7.26,17.61,17.61,0,0,0,7.12,4.19,25.73,25.73,0,0,0,7.75,1.15h.63a25.65,25.65,0,0,0,6.63-1.05,20,20,0,0,0,6-2.93,19,19,0,0,0,3.44-3.18l.15,5.78,8.68-.21-1.34-53.32Z" transform="translate(-2.68 0)"/>
        <path class="cls-1" d="M475.85,963.5a23.41,23.41,0,0,0-7.29-6.62,27.8,27.8,0,0,0-9.88-3.32,29.43,29.43,0,0,0-4.22-.33,24.22,24.22,0,0,0-11.33,2.86,22.56,22.56,0,0,0-4,2.82l1.09-7.42-8.63-1.25-7.69,52.82,8.6,1.27,1.08-7.42a24.36,24.36,0,0,0,3.05,3.88,23.09,23.09,0,0,0,6.18,4.44,26.19,26.19,0,0,0,8,2.39,29.06,29.06,0,0,0,4.41.34,24.74,24.74,0,0,0,6-.71,22.77,22.77,0,0,0,8.89-4.26,24.67,24.67,0,0,0,6.49-7.8,35.37,35.37,0,0,0,3.24-22.3A24.22,24.22,0,0,0,475.85,963.5Zm-4.42,19.56A24.22,24.22,0,0,1,469,991a15.36,15.36,0,0,1-10.31,8.12,18.83,18.83,0,0,1-4.25.47,24.7,24.7,0,0,1-3.27-.24,18.43,18.43,0,0,1-6.83-2.37,16.42,16.42,0,0,1-5-4.55,17.23,17.23,0,0,1-2.77-6.38,22.63,22.63,0,0,1-.17-8.09,23.37,23.37,0,0,1,2.48-7.74,16.47,16.47,0,0,1,10.56-8.32,17.89,17.89,0,0,1,4.3-.51,21.51,21.51,0,0,1,3,.21A20.71,20.71,0,0,1,463.8,964a16.47,16.47,0,0,1,5,4.46,16.19,16.19,0,0,1,2.62,6.31A25.51,25.51,0,0,1,471.43,983.06Z" transform="translate(-2.68 0)"/>
        <path class="cls-1" d="M396.49,948.85a24.41,24.41,0,0,0-2.28-4.39,23.07,23.07,0,0,0-5.36-5.45,26.52,26.52,0,0,0-7.37-3.75,29.19,29.19,0,0,0-9.77-1.46h-.54a22.84,22.84,0,0,0-9.45,2.63,24.16,24.16,0,0,0-7.78,6.59,35.6,35.6,0,0,0-7.14,21.43,25.32,25.32,0,0,0,2.3,9.87,23.44,23.44,0,0,0,6,7.8,28,28,0,0,0,9.14,5,27.19,27.19,0,0,0,8.46,1.41,21.57,21.57,0,0,0,11.67-3.27l-8,23.86,8.29,2.75,22.44-67.45-8.29-2.73Zm-23.33-8.77.09,0v2.13a20.54,20.54,0,0,1,6.38,1.12,17.89,17.89,0,0,1,6.29,3.5,16.41,16.41,0,0,1,4.1,5.34,17.3,17.3,0,0,1,1.63,6.85,24.12,24.12,0,0,1-5,15.15,17.36,17.36,0,0,1-5.41,4.47,18,18,0,0,1-7.69,1.88,19.2,19.2,0,0,1-5.92-1A19.69,19.69,0,0,1,361,976a15,15,0,0,1-4-5.2,16.66,16.66,0,0,1-1.51-6.65,24.08,24.08,0,0,1,1.37-8.19,23.38,23.38,0,0,1,3.84-7.42,16.69,16.69,0,0,1,5.15-4.48,15.54,15.54,0,0,1,6.35-1.77Z" transform="translate(-2.68 0)"/>
        <polygon class="cls-1" points="293.51 977.35 301.38 981.12 332.44 917.21 324.58 913.44 293.51 977.35"/>
        <path class="cls-1" d="M283.78,887.71a30.32,30.32,0,0,0-8.57-4,25.07,25.07,0,0,0-7-.79h-1.42a21.94,21.94,0,0,0-7.75,2.24,23,23,0,0,0-6.55,5l-1.88,2,7.58,4.93,1.34-1.45c2.56-2.78,5.55-4.23,10.05-4.47a18.11,18.11,0,0,1,10.05,3.3,19,19,0,0,1,4.76,4.41,15.31,15.31,0,0,1,2.76,5.66,15.74,15.74,0,0,1,.14,6.67,20.65,20.65,0,0,1-2.11,5.85l-33.08-21.59L249,896l-1.34,1.46L245.85,900a24.61,24.61,0,0,0-3.36,8.18,22.51,22.51,0,0,0-.14,9.07,23.43,23.43,0,0,0,3.7,8.75,27.15,27.15,0,0,0,7.89,7.55,28.47,28.47,0,0,0,9.68,4.07,23.8,23.8,0,0,0,10,0,24.9,24.9,0,0,0,9.29-4.29,31.38,31.38,0,0,0,7.77-8.38,32.1,32.1,0,0,0,4.61-10.58,23.93,23.93,0,0,0-3.84-19.38A28.72,28.72,0,0,0,283.78,887.71Zm-33,22.57a17.6,17.6,0,0,1,2.34-5.6l28.16,18.4a20.51,20.51,0,0,1-4.41,4.15c-2.05,1.36-4.13,2.21-8.63,2.77a15.81,15.81,0,0,1-3.84-.5,20.16,20.16,0,0,1-6.1-2.68,20.36,20.36,0,0,1-4.81-4.4,13.72,13.72,0,0,1-2.68-5.52A15.83,15.83,0,0,1,250.8,910.28Z" transform="translate(-2.68 0)"/>
        <polygon class="cls-1" points="184.82 815.55 201.06 832.69 157.54 873.94 163.55 880.23 212.87 833.52 190.63 810.08 184.82 815.55"/>
        <polygon class="cls-1" points="129.07 829.12 125.37 826.93 124.45 826.78 121.61 827.55 120.95 828.05 118.84 830.97 118.76 832.01 119.56 835.44 120.13 836.14 122.92 838.26 124.6 838.46 127.42 837.68 128.04 837.22 130.21 834.36 130.32 833.38 129.69 829.89 129.07 829.12"/>
        <polygon class="cls-1" points="173.72 788.74 131.63 821.59 136.98 828.44 179.07 795.62 173.72 788.74"/>
        <polygon class="cls-1" points="146.1 750.71 90.6 759.71 92.42 762.69 97.09 767.51 138.24 760.66 113.61 796.97 117.71 803.58 150.74 755.47 146.1 750.71"/>
        <polygon class="cls-1" points="70.61 735.55 69.72 735.21 65.25 735.45 62.55 737.81 62.26 738.81 62.26 742.31 62.63 743.12 64.91 745.84 65.8 746.17 67.65 746.51 70.24 745.88 72.89 743.58 73.23 742.7 73.34 739.15 72.91 738.25 70.61 735.55"/>
        <polygon class="cls-1" points="125.25 708.47 77.04 731.43 80.77 739.26 128.98 716.31 125.25 708.47"/>
        <path class="cls-1" d="M67.51,704.13l50.54-17.06-2.76-8.25-26.8,9a26.12,26.12,0,0,1-8.2,1.52h0a14.93,14.93,0,0,1-6.21-1.23,12.32,12.32,0,0,1-4.49-3.41,16.24,16.24,0,0,1-3-5.5c-1.4-4.11-1.29-7.69.34-11s5-5.71,10-7.42l29-9.76-2.82-8.25L74,652.71a28.75,28.75,0,0,0-9.31,4.91,20.75,20.75,0,0,0-5.55,6.8,18.51,18.51,0,0,0-1.86,8,25.59,25.59,0,0,0,1.37,8.33,25,25,0,0,0,3,6,19.21,19.21,0,0,0,4.62,4.91,18.58,18.58,0,0,0,4,2.31l-5.47,1.85Z" transform="translate(-2.68 0)"/>
        <path class="cls-1" d="M65.88,628.89a36.37,36.37,0,0,0,5.84-.48,33.21,33.21,0,0,0,10.88-3.65,24.4,24.4,0,0,0,7.74-6.62,22.54,22.54,0,0,0,4.1-8.94,27.08,27.08,0,0,0,.2-10.41,25.42,25.42,0,0,0-2.53-8,23.42,23.42,0,0,0-4.53-6.08,21.57,21.57,0,0,0-3.93-3l6.52-1.06a21.51,21.51,0,0,1,3.59-.31,17.31,17.31,0,0,1,3.65.38,14.59,14.59,0,0,1,5.58,2.48,14.27,14.27,0,0,1,3.93,4.4,18.49,18.49,0,0,1,2.1,6.11c.74,4.51.29,8.36-1.28,11.38s-4,5.38-8.46,9.42l1.17,6.91,2.76-1.26a24.32,24.32,0,0,0,11.59-10.63c2.65-4.8,3.45-10.62,2.34-17.3a26,26,0,0,0-3.22-9.09,22.56,22.56,0,0,0-14.69-10.82,24.49,24.49,0,0,0-5.73-.65,30.93,30.93,0,0,0-4.72.38L37,580.51l1.4,8.59,7.43-1.21A23.51,23.51,0,0,0,43,592a23.8,23.8,0,0,0-2.34,7.19,26.16,26.16,0,0,0,.09,8.36,27.79,27.79,0,0,0,3.5,9.83,22.77,22.77,0,0,0,6.72,7.19,24.55,24.55,0,0,0,9.4,3.84A29.37,29.37,0,0,0,65.88,628.89Zm-17-30.74A16.61,16.61,0,0,1,51.76,592,17.47,17.47,0,0,1,57,587.42a22.62,22.62,0,0,1,7.66-2.59,25.7,25.7,0,0,1,4.1-.35,20.43,20.43,0,0,1,4,.39,16.53,16.53,0,0,1,6.47,2.65,16.91,16.91,0,0,1,4.64,4.92,18.93,18.93,0,0,1,2.45,6.85,19.51,19.51,0,0,1-.09,7.48,15.91,15.91,0,0,1-2.76,6.06,15.38,15.38,0,0,1-5.24,4.42,24.91,24.91,0,0,1-7.92,2.56,29.34,29.34,0,0,1-4.52.4,21.74,21.74,0,0,1-3.79-.33,15.9,15.9,0,0,1-6.32-2.55,15.41,15.41,0,0,1-4.5-4.87,19.31,19.31,0,0,1-2.48-7.12A17.89,17.89,0,0,1,48.91,598.15Z" transform="translate(-2.68 0)"/>
        <polyline class="cls-1" points="27.98 503.61 53.19 494.94 77.34 503.33 53.29 512.01 27.98 503.65"/>
      </g>
      <polyline class="cls-1" points="551.49 77.81 545.51 51.84 556.37 28.69 562.49 53.52 551.53 77.81"/>
    </g>
    <g id="hinh">
      <path class="cls-1" d="M855.68,515.29l.14-1.12-.14.07-.21-1.56-139-136.95,44-89.8-.14-.64-.49-1h.28l-.49-.49-.36-1-.28.42-.85-1.06v.29l-1.27-1.06-195.2,1.41-32.9-95-1.27-1.35h-1.27l-2.68,1.06L386.92,326.31l-88.53-43.84-3,.07-.35.35-1.55,1.84-.36.21h.14l-.91,1.2,1.41,195.55L201.6,512.33l-2.47,1.27-.28.78-.15-.14-.28,1.13-.28-.29.07.92-.42.78.42-.21V518l.07-.14.21,1.62,139,137-44.13,88.39-.07,2.11.43.92,2.4,2.26.92.64,195.2-1.42L524.65,844l2,1.13-.14.22.56.35h.56l2.12-.5,137.6-139.64,88.17,44.06,4-.36,2.11-3.24-1.41-195.2,94.46-32.34.35-.92.14.36.22-1.2.35.35V516l.35-.85ZM453.14,595.21l70-70-.07,99.12-33.89-17.09h-.64l.29-.07Zm-23.8-34.8,10,30.21-46.1-15.32Zm-39,7.9,21.82-43.48,14.26,28.59Zm9.32,17.44,39.18,13.06-65.3,65.37Zm44.48,18.43,13.06,39.25-78.43,26.19Zm-8.54-50.76-16.81-33.54h99l-70,70ZM418.4,512.26l17.37-34.73,11.86-35.44,70.24,70.17Zm34.24-75.89L489.56,424l33.61-16.8v99.68Zm37.14-21-15.11-36.57,44.05,22.1Zm-7,2.89-30.71,10.24,15.6-46.8ZM444,427.54l-65.16-65.16,78.22,26.05Zm-5.37,5.3-39,13-26.05-78Zm1,7.83-10.16,30.5L393.2,456.06Zm-13,37.49-14.33,28.73-22-43.84ZM406,512.05l-92.41.07,73.91-37Zm-.07,7.62-18.43,36.78-73.63-36.78Zm-14.05,64.46-29,87-16.59-14.54,37.63-75.12Zm-25.35,98,92.84-30.93L462,659.1,317.8,731.18Zm85.71-78.51,30.35,10.1-15,36.07Zm37.34,13,28.52,14.26L474.6,652.61Zm33.68,20.33.07,93L486.1,655.43Zm0-242.28-37.07-18.57,37-74.06Zm-.43-110.21-43.91,88-7.41-3.74L522.74,215Zm-5.29-79.84L464.08,365.14,392.7,329.41ZM387.41,335.77l74.2,37.2-2.62,7.7-87.11-29Zm-7.7-3.81-15.53,15.46L317.87,301Zm-33,10,13.62,13.27,31.13,93.4-7.27,2.4L312.44,307.53ZM300,302.52,375.83,454,300,479.15Zm79.56,158.56,3.67,7.41-82.31,41.16-1.27-22Zm-84.22,59.16,88.11,43.91L380,571,227.86,520.38H273ZM292.6,490v22L226.73,512Zm-77.09,35.51L376.11,579l-35.72,71.38ZM342.79,663.34l15.82,15.81-47.23,47.16ZM313.42,743l151.36-75.75L490.06,743ZM472,663.48l7.56-3.74L521,742.62l-22.17,1.48Zm51.33,154-22.38-67.07h22.45ZM711.1,368.81l-15.82-15.89,47.44-47.37ZM571.88,613.5l30.43-10.1-15.46,46.31Zm8,39.11-43.7-21.89,28.73-14.33Zm39-174.38,17.08,34H536.09l70.59-70.46Zm-21.89-90.08L675.44,362,610,427.47Zm30.64,90.15,36.64-15.18-22.17,44.13Zm-2.89-7-10.31-30.78,46.87,15.6ZM654.62,446l-39.25-13.13,65.51-65.59Zm-60.08-65.44-2.68-7.84,144.93-72.5L719.5,317.41l-31.63,32Zm7.91,48.07-30.71-10.31,15.11-36.56,1.62,5.22Zm-37.7-13.2-29-14.47,44.13-22.1Zm-33.89-20.68-.14-92.35,37,73.85Zm-.07,12.49,34.38,17.16,36.15,12-70.6,70.52ZM635.84,519.88l-17.16,34.38-12.07,36.08-70.52-70.46ZM610,604l65.44,65.37-78.5-26.12Zm5.44-5.3,39.32-13.13L681,664.25Zm-.85-7.91,10.24-30.71,36.57,15.11Zm13.13-37.7,14.4-28.73,22.1,43.77Zm20.76-33.53,92.48-.07-74,37Zm-.29-7.62,18.57-37.07L740.82,512Zm13.91-64,29.3-87.9,16.73,14.62-38,76ZM740.53,289.1,589.1,364.92,563.9,289.1ZM582,368.67l-7.48,3.67-41.23-82.6,22.38-.21Zm-51.32-154,22.38,67H530.58Zm.07,310.49L601,595.42l-36.29,12.15-34,17ZM530.86,637,568,655.5l-37.07,74.2Zm.21,110.7,44.06-88.1,7.34,3.74L531.29,817.1l.07-47Zm5.37,79.85L590,666.87l71.38,35.79Zm56-168.66,2.61-7.7,87.33,29.16L668.1,696.73Zm82,41.16,15.74-15.75,46.88,47ZM693.66,677l-31.13-93.4,7.83-2.61L742.94,726Zm60.22,52.67L678.13,578.2,753.88,553Zm-79.56-158.7-3.68-7.42,82.74-41.37,1.49,22Zm87-28.81V519.67l66.93.07Zm-2.75-30.21-88.11-44,3.89-7.55,154.46,51.47ZM677.77,453.1l35.8-71.37L838.45,506.61Z" transform="translate(-2.68 0)"/>
    </g>
  </g>
</svg>
