<svg xmlns="http://www.w3.org/2000/svg" viewBox="0 0 2592 942"><switch><g><g fill="#5B873C"><path d="M1107.32 177.06c0-4.35 2.16-6.54 6.54-6.54h140.33c4.35 0 6.54 2.19 6.54 6.54v28.28c0 4.35-2.19 6.54-6.54 6.54h-102.07v56.9h85.16c4.38 0 6.57 2.16 6.57 6.49v28.38c0 4.33-2.19 6.49-6.57 6.49h-85.16v60.34h102.07c4.35 0 6.54 2.19 6.54 6.54v28.28c0 4.35-2.19 6.54-6.54 6.54h-140.33c-4.38 0-6.54-2.19-6.54-6.54V177.06zM1346.28 203.28c24.15-24.15 53.44-36.22 87.93-36.22 31.94 0 59.76 10.7 83.43 32.08 3.44 3.22 3.56 6.42.34 9.64l-21.02 21.72c-2.77 3.01-5.63 3.01-8.63 0-15.63-13.56-33.31-20.35-53.08-20.35-21.62 0-39.9 7.96-54.83 23.86-14.69 15.44-22.05 34.32-22.05 56.66 0 21.89 7.36 40.55 22.05 55.96 14.93 15.9 33.33 23.86 55.17 23.86 19.07 0 36.65-6.57 52.74-19.65 3.01-2.77 5.87-2.77 8.63 0l21.38 22.03c1.59 1.15 2.16 2.62 1.71 4.45 0 1.83-.67 3.42-2.07 4.79-22.97 22.13-50.91 33.19-83.77 33.19-34.49 0-63.78-12.05-87.93-36.19-24.36-23.66-36.56-52.86-36.56-87.57.01-34.49 12.2-63.9 36.56-88.26zM1594.64 203.28c23.91-24.15 53.1-36.22 87.57-36.22 34.49 0 63.8 12.07 87.93 36.22 24.15 24.36 36.19 53.78 36.19 88.26 0 34.46-12.05 63.66-36.19 87.57-24.12 24.15-53.44 36.19-87.93 36.19-34.46 0-63.66-12.05-87.57-36.19-24.12-23.91-36.19-53.1-36.19-87.57 0-34.49 12.07-63.9 36.19-88.26zm31.73 144.1c15.39 15.42 34.01 23.11 55.84 23.11s40.45-7.7 55.87-23.11c15.63-15.63 23.45-34.25 23.45-55.84 0-21.84-7.82-40.57-23.45-56.2-15.63-15.63-34.25-23.45-55.87-23.45-21.6 0-40.21 7.82-55.84 23.45-15.39 15.39-23.11 34.13-23.11 56.2-.01 21.84 7.71 40.45 23.11 55.84zM1871.19 177.06c0-4.35 2.16-6.54 6.54-6.54h31.72c4.35 0 6.54 2.19 6.54 6.54v193.43h87.93c4.35 0 6.54 2.19 6.54 6.54v28.28c0 4.35-2.19 6.54-6.54 6.54h-126.19c-4.38 0-6.54-2.19-6.54-6.54V177.06zM2062.27 177.06c0-4.35 2.16-6.54 6.49-6.54h31.82c4.33 0 6.49 2.19 6.49 6.54v228.26c0 4.35-2.16 6.54-6.49 6.54h-31.82c-4.33 0-6.49-2.19-6.49-6.54V177.06zM2188.5 177.06c0-4.35 2.16-6.54 6.54-6.54h140.33c4.35 0 6.54 2.19 6.54 6.54v28.28c0 4.35-2.19 6.54-6.54 6.54H2233.3v64.81h85.16c4.38 0 6.57 2.19 6.57 6.57v28.26c0 4.38-2.19 6.57-6.57 6.57h-85.16v87.23c0 4.35-2.19 6.54-6.54 6.54h-31.72c-4.38 0-6.54-2.19-6.54-6.54V177.06zM2399.59 177.06c0-4.35 2.16-6.54 6.54-6.54h140.33c4.35 0 6.54 2.19 6.54 6.54v28.28c0 4.35-2.19 6.54-6.54 6.54h-102.07v56.9h85.16c4.38 0 6.57 2.16 6.57 6.49v28.38c0 4.33-2.19 6.49-6.57 6.49h-85.16v60.34h102.07c4.35 0 6.54 2.19 6.54 6.54v28.28c0 4.35-2.19 6.54-6.54 6.54h-140.33c-4.38 0-6.54-2.19-6.54-6.54V177.06z"/><g><path d="M1255.12 503.44c6.61 0 12.58.87 17.97 2.6 5.36 1.73 10.12 4.18 14.26 7.38 4.14 3.2 7.6 7.02 10.41 11.45 2.81 4.45 4.95 9.36 6.42 14.79h-17.87c-2.38-6.11-6.18-11.06-11.45-14.86-5.29-3.78-11.95-5.68-20.03-5.68-4.64 0-8.92.84-12.87 2.57a29.797 29.797 0 00-10.27 7.46c-2.89 3.27-5.17 7.19-6.78 11.83-1.64 4.62-2.45 9.86-2.45 15.66 0 5.72.82 10.89 2.45 15.51 1.61 4.64 3.9 8.59 6.78 11.83 2.91 3.25 6.35 5.72 10.27 7.46 3.94 1.73 8.23 2.6 12.87 2.6 8.08 0 14.74-1.9 20.03-5.7 5.27-3.8 9.07-8.68 11.45-14.69h17.87c-1.47 5.41-3.61 10.34-6.42 14.77s-6.28 8.23-10.41 11.38-8.9 5.6-14.26 7.31c-5.39 1.73-11.35 2.6-17.97 2.6-7.48 0-14.31-1.3-20.47-3.92-6.16-2.6-11.4-6.25-15.73-10.94-4.33-4.67-7.72-10.27-10.12-16.76-2.41-6.49-3.61-13.64-3.61-21.43 0-7.77 1.2-14.91 3.61-21.43 2.4-6.49 5.8-12.12 10.12-16.83 4.33-4.74 9.57-8.39 15.73-11.01 6.16-2.63 12.99-3.95 20.47-3.95zM1375.75 503.15c7.29 0 14.09 1.3 20.39 3.92 6.3 2.6 11.74 6.28 16.33 11.01 4.57 4.71 8.18 10.34 10.77 16.83 2.62 6.49 3.92 13.68 3.92 21.57 0 7.79-1.3 14.96-3.92 21.5-2.6 6.54-6.23 12.19-10.85 16.91-4.64 4.74-10.08 8.44-16.33 11.09-6.25 2.67-13.03 3.99-20.32 3.99-7.38 0-14.24-1.32-20.54-3.99-6.3-2.65-11.76-6.35-16.4-11.09-4.64-4.71-8.25-10.37-10.87-16.91-2.6-6.54-3.9-13.71-3.9-21.5 0-7.89 1.3-15.08 3.9-21.57 2.62-6.49 6.23-12.12 10.87-16.83 4.64-4.74 10.1-8.42 16.4-11.01 6.32-2.62 13.17-3.92 20.55-3.92zm0 15.66c-5.03 0-9.64.89-13.9 2.67-4.23 1.78-7.84 4.28-10.85 7.53s-5.36 7.19-7.09 11.83c-1.73 4.62-2.6 9.84-2.6 15.66s.87 11.04 2.6 15.66c1.73 4.64 4.09 8.59 7.09 11.83 3.01 3.25 6.61 5.75 10.85 7.53 4.26 1.78 8.87 2.67 13.9 2.67 4.93 0 9.48-.89 13.66-2.67s7.82-4.28 10.87-7.53c3.05-3.25 5.41-7.19 7.09-11.83 1.66-4.62 2.5-9.84 2.5-15.66s-.84-11.04-2.5-15.66c-1.68-4.64-4.04-8.59-7.09-11.83-3.05-3.25-6.69-5.75-10.87-7.53-4.18-1.78-8.72-2.67-13.66-2.67zM1560.22 506.11V608.8h-16.83v-76.98l-29.7 76.98h-14.79l-29.85-76.98v76.98h-16.83V506.11h20.37l33.93 82.01 33.33-82.01h20.37zM1697.81 506.11V608.8h-16.83v-76.98l-29.7 76.98h-14.79l-29.85-76.98v76.98h-16.83V506.11h20.37l33.93 82.01 33.33-82.01h20.37zM1774.55 503.15c7.29 0 14.09 1.3 20.39 3.92 6.3 2.6 11.74 6.28 16.33 11.01 4.57 4.71 8.18 10.34 10.77 16.83 2.62 6.49 3.92 13.68 3.92 21.57 0 7.79-1.3 14.96-3.92 21.5-2.6 6.54-6.23 12.19-10.85 16.91-4.64 4.74-10.08 8.44-16.33 11.09-6.25 2.67-13.03 3.99-20.32 3.99-7.38 0-14.24-1.32-20.54-3.99-6.3-2.65-11.76-6.35-16.4-11.09-4.64-4.71-8.25-10.37-10.87-16.91-2.6-6.54-3.9-13.71-3.9-21.5 0-7.89 1.3-15.08 3.9-21.57 2.62-6.49 6.23-12.12 10.87-16.83 4.64-4.74 10.1-8.42 16.4-11.01 6.31-2.62 13.16-3.92 20.55-3.92zm0 15.66c-5.03 0-9.64.89-13.9 2.67-4.23 1.78-7.84 4.28-10.85 7.53s-5.36 7.19-7.09 11.83c-1.73 4.62-2.6 9.84-2.6 15.66s.87 11.04 2.6 15.66c1.73 4.64 4.09 8.59 7.09 11.83 3.01 3.25 6.61 5.75 10.85 7.53 4.26 1.78 8.87 2.67 13.9 2.67 4.93 0 9.48-.89 13.66-2.67s7.82-4.28 10.87-7.53c3.05-3.25 5.41-7.19 7.09-11.83 1.66-4.62 2.5-9.84 2.5-15.66s-.84-11.04-2.5-15.66c-1.68-4.64-4.04-8.59-7.09-11.83-3.05-3.25-6.69-5.75-10.87-7.53-4.19-1.78-8.73-2.67-13.66-2.67zM1935.37 608.8h-16.83l-50.7-76.98v76.98H1851V504.62h16.83l50.7 77.3v-77.3h16.83V608.8zM1981.83 568.33v40.48H1965V504.48h35.45c6.23 0 11.59.79 16.11 2.38 4.55 1.56 8.3 3.75 11.3 6.57s5.22 6.18 6.66 10.12c1.42 3.94 2.14 8.27 2.14 13.01 0 9.74-3.05 17.48-9.16 23.18-6.11 5.72-15.13 8.59-27.06 8.59h-18.61zm16.86-13.76c7.58 0 12.94-1.66 16.09-4.98 3.17-3.29 4.74-7.67 4.74-13.11 0-5.65-1.54-10.1-4.64-13.37-3.1-3.25-8.51-4.88-16.19-4.88h-16.86v36.34h16.86zM2074.76 595.65h36.05v13.16h-52.89V504.48h16.83v91.17zM2196.98 586.2h-44.04l-7.98 22.61h-18.04l38.43-102.69h19.36l38.26 102.69h-18.04l-7.95-22.61zm-4.74-13.01l-17.29-48.75-17.29 48.75h34.58zM2285.03 503.44c6.61 0 12.58.87 17.97 2.6 5.36 1.73 10.13 4.18 14.26 7.38 4.14 3.2 7.6 7.02 10.41 11.45 2.81 4.45 4.95 9.36 6.42 14.79h-17.87c-2.38-6.11-6.18-11.06-11.45-14.86-5.29-3.78-11.95-5.68-20.03-5.68-4.64 0-8.92.84-12.87 2.57a29.797 29.797 0 00-10.27 7.46c-2.89 3.27-5.17 7.19-6.78 11.83-1.64 4.62-2.45 9.86-2.45 15.66 0 5.72.82 10.89 2.45 15.51 1.61 4.64 3.9 8.59 6.78 11.83 2.91 3.25 6.35 5.72 10.27 7.46 3.94 1.73 8.22 2.6 12.87 2.6 8.08 0 14.74-1.9 20.03-5.7 5.27-3.8 9.07-8.68 11.45-14.69h17.87c-1.47 5.41-3.61 10.34-6.42 14.77s-6.28 8.23-10.41 11.38-8.9 5.6-14.26 7.31c-5.39 1.73-11.35 2.6-17.97 2.6-7.48 0-14.31-1.3-20.47-3.92-6.16-2.6-11.4-6.25-15.73-10.94-4.33-4.67-7.72-10.27-10.13-16.76-2.4-6.49-3.61-13.64-3.61-21.43 0-7.77 1.2-14.91 3.61-21.43 2.41-6.49 5.8-12.12 10.13-16.83 4.33-4.74 9.57-8.39 15.73-11.01 6.16-2.63 12.99-3.95 20.47-3.95zM2375.34 518.23v31.46h38.43v13.01h-38.43v32.37h42.86v13.73h-59.69V504.48h59.69v13.76h-42.86zM1140.28 738.65c0 3.66-.67 7.21-2 10.7-1.32 3.51-3.39 6.59-6.13 9.24-2.77 2.67-6.23 4.81-10.41 6.45-4.18 1.61-9.14 2.43-14.86 2.43-5.41 0-10.39-.72-14.91-2.14-4.55-1.42-8.47-3.44-11.76-6.06-3.29-2.6-5.96-5.77-7.98-9.45-2.02-3.7-3.22-7.82-3.61-12.34h18.01c.22 2.07.77 4.09 1.71 6.06.94 1.97 2.21 3.7 3.85 5.24 1.61 1.52 3.58 2.79 5.92 3.75 2.31.99 4.98 1.49 8.03 1.49 5.34 0 9.36-1.42 12.05-4.28 2.72-2.86 4.06-6.35 4.06-10.49 0-4.45-1.32-7.86-3.99-10.29-2.65-2.4-5.99-4.43-9.96-6.04-3.99-1.64-8.35-3.13-13.01-4.52-4.69-1.37-9.02-3.2-13.01-5.46a30.41 30.41 0 01-9.96-9.02c-2.67-3.75-3.99-8.75-3.99-15.08 0-4.23.77-8.06 2.36-11.52 1.56-3.44 3.85-6.4 6.81-8.85 2.93-2.48 6.49-4.38 10.63-5.7 4.14-1.32 8.75-2 13.88-2 5.53 0 10.44.72 14.72 2.14 4.28 1.44 7.91 3.37 10.92 5.84 3.01 2.45 5.41 5.39 7.17 8.78 1.78 3.42 2.86 7.07 3.27 11.01h-18.18c-.29-1.78-.87-3.51-1.71-5.24-.84-1.73-2-3.25-3.46-4.57-1.49-1.35-3.25-2.43-5.32-3.27-2.07-.82-4.55-1.25-7.41-1.25-4.62 0-8.39 1.15-11.3 3.49-2.89 2.31-4.35 5.82-4.35 10.56 0 4.23 1.32 7.53 3.99 9.88 2.67 2.38 5.99 4.35 9.98 5.92 3.99 1.59 8.32 3.05 12.99 4.45 4.69 1.37 9.02 3.22 13.01 5.53s7.31 5.39 9.98 9.24c2.63 3.85 3.97 8.97 3.97 15.37zM1180.88 662.1v61.93c0 9.55 2.09 16.52 6.28 20.9 4.18 4.38 9.86 6.57 17.05 6.57 7.09 0 12.75-2.19 16.93-6.57 4.18-4.38 6.28-11.35 6.28-20.9V662.1h16.83v61.93c0 7.38-1.01 13.8-3.03 19.26-2.02 5.48-4.83 10-8.49 13.61-3.63 3.58-7.91 6.25-12.77 7.96-4.88 1.73-10.22 2.6-16.04 2.6-5.72 0-11.01-.87-15.87-2.6-4.88-1.71-9.09-4.38-12.65-7.96-3.54-3.61-6.33-8.13-8.35-13.61-2.02-5.46-3.03-11.88-3.03-19.26V662.1h16.86zM1340.93 738.65c0 3.66-.67 7.21-2 10.7-1.32 3.51-3.39 6.59-6.13 9.24-2.77 2.67-6.23 4.81-10.41 6.45-4.18 1.61-9.14 2.43-14.86 2.43-5.41 0-10.39-.72-14.91-2.14-4.55-1.42-8.47-3.44-11.76-6.06-3.29-2.6-5.96-5.77-7.98-9.45-2.02-3.7-3.22-7.82-3.61-12.34h18.01c.22 2.07.77 4.09 1.71 6.06.94 1.97 2.21 3.7 3.85 5.24 1.61 1.52 3.58 2.79 5.92 3.75 2.31.99 4.98 1.49 8.03 1.49 5.34 0 9.36-1.42 12.05-4.28 2.72-2.86 4.06-6.35 4.06-10.49 0-4.45-1.32-7.86-3.99-10.29-2.65-2.4-5.99-4.43-9.96-6.04-3.99-1.64-8.35-3.13-13.01-4.52-4.69-1.37-9.02-3.2-13.01-5.46s-7.31-5.27-9.96-9.02c-2.67-3.75-3.99-8.75-3.99-15.08 0-4.23.77-8.06 2.36-11.52 1.56-3.44 3.85-6.4 6.81-8.85 2.93-2.48 6.49-4.38 10.63-5.7 4.14-1.32 8.75-2 13.88-2 5.53 0 10.44.72 14.72 2.14 4.28 1.44 7.91 3.37 10.92 5.84 3.01 2.45 5.41 5.39 7.17 8.78 1.78 3.42 2.86 7.07 3.27 11.01h-18.18c-.29-1.78-.87-3.51-1.71-5.24-.84-1.73-2-3.25-3.46-4.57-1.49-1.35-3.25-2.43-5.31-3.27-2.07-.82-4.55-1.25-7.41-1.25-4.62 0-8.39 1.15-11.3 3.49-2.89 2.31-4.35 5.82-4.35 10.56 0 4.23 1.32 7.53 3.99 9.88 2.67 2.38 5.99 4.35 9.98 5.92 3.99 1.59 8.32 3.05 12.99 4.45 4.69 1.37 9.02 3.22 13.01 5.53s7.31 5.39 9.98 9.24c2.61 3.85 3.96 8.97 3.96 15.37zM1431.45 662.1v13.76h-29.1v90.72h-16.86v-90.72h-28.96V662.1h74.92zM1504.28 743.82h-44.04l-7.98 22.61h-18.04l38.43-102.69h19.36l38.26 102.69h-18.04l-7.95-22.61zm-4.74-13.01l-17.29-48.75-17.29 48.75h34.58zM1567.14 662.1v104.33h-16.83V662.1h16.83zM1681.14 766.43h-16.83l-50.7-76.98v76.98h-16.83V662.24h16.83l50.7 77.3v-77.3h16.83v104.19zM1771.3 743.82h-44.04l-7.98 22.61h-18.04l38.43-102.69h19.36l38.26 102.69h-18.04l-7.95-22.61zm-4.74-13.01l-17.29-48.75-17.29 48.75h34.58zM1871.81 712.65c6.4 1.37 11.52 4.4 15.37 9.07 3.85 4.69 5.77 10.17 5.77 16.47 0 8.39-2.84 15.18-8.51 20.39-5.65 5.24-14.17 7.84-25.49 7.84h-41.51V662.1h40.79c10.73 0 18.81 2.38 24.22 7.09 5.44 4.74 8.13 11.14 8.13 19.22 0 6.9-1.8 12.34-5.39 16.33-3.62 3.99-8.07 6.61-13.38 7.91zm-37.55-5.63h20.85c5.99 0 10.53-1.37 13.59-4.14s4.57-6.59 4.57-11.52c0-4.74-1.47-8.49-4.43-11.3s-7.74-4.21-14.33-4.21h-20.25v31.17zm21.29 45.67c6.49 0 11.47-1.44 14.93-4.3 3.44-2.89 5.17-6.97 5.17-12.34 0-5.34-1.76-9.45-5.24-12.39-3.51-2.91-8.51-4.38-15.01-4.38h-21.14v33.41h21.29zM1934.96 753.27h36.05v13.16h-52.89V662.1h16.83v91.17zM2008.29 675.85v31.46h38.43v13.01h-38.43v32.37h42.86v13.73h-59.69V662.1h59.69v13.76h-42.86zM2124.86 753.27h36.05v13.16h-52.89V662.1h16.83v91.17zM2198.19 662.1v104.33h-16.83V662.1h16.83zM2236.62 662.1l29.99 86.29 30.16-86.29h18.33l-37.69 104.33h-21.57L2218.3 662.1h18.32zM2352.01 662.1v104.33h-16.83V662.1h16.83zM2466 766.43h-16.83l-50.7-76.98v76.98h-16.83V662.24h16.83l50.7 77.3v-77.3H2466v104.19zM2542.48 661.21c6.33 0 12.1.82 17.36 2.45 5.27 1.61 9.91 3.92 13.9 6.88 3.99 2.93 7.36 6.52 10.12 10.7 2.74 4.18 4.76 8.9 6.06 14.12h-17.75c-2.26-5.41-5.89-9.86-10.92-13.3-5.03-3.46-11.23-5.17-18.61-5.17-4.93 0-9.48.87-13.61 2.57-4.14 1.73-7.72 4.21-10.77 7.48-3.05 3.25-5.41 7.17-7.09 11.74s-2.53 9.79-2.53 15.58c0 6.01.87 11.38 2.6 16.11 1.73 4.71 4.14 8.71 7.24 11.98 3.1 3.25 6.85 5.72 11.23 7.46 4.38 1.73 9.24 2.57 14.55 2.57 4.23 0 8.25-.65 12.05-2 3.8-1.32 7.17-3.27 10.13-5.82 2.96-2.57 5.41-5.72 7.38-9.48 1.97-3.73 3.29-8.01 3.99-12.84h-38.26v-12.41H2592v16.11c-.89 5.6-2.65 10.92-5.24 15.95a47.017 47.017 0 01-10.2 13.23c-4.21 3.8-9.14 6.81-14.86 9.02-5.7 2.21-12.07 3.32-19.05 3.32-7.7 0-14.69-1.3-21-3.92-6.3-2.6-11.69-6.28-16.19-11.01-4.47-4.71-7.94-10.34-10.41-16.83-2.45-6.49-3.68-13.64-3.68-21.43 0-7.77 1.23-14.91 3.68-21.43 2.48-6.49 5.92-12.07 10.34-16.76 4.45-4.69 9.81-8.32 16.11-10.94 6.31-2.61 13.31-3.93 20.98-3.93z"/></g></g><path fill="#5B873C" d="M938.38 469.94l.2-1.61-.2.1-.3-2.22-198.61-195.68 62.94-128.3-.2-.91-.71-1.41h.4l-.71-.71-.5-1.41-.4.61-1.21-1.51v.4l-1.82-1.51-278.9 2.02-47-135.77-1.82-1.92h-1.82l-3.83 1.51-195.27 198.3-126.49-62.64-4.34.1-.5.5-2.22 2.62-.5.3h.2l-1.31 1.72 2.02 279.4L3.85 465.7l-3.53 1.82-.4 1.11-.2-.2-.4 1.61-.4-.4.1 1.31-.61 1.11.61-.3v2.02l.1-.2.3 2.32 198.61 195.68-63.04 126.29-.1 3.03.61 1.31 3.43 3.23 1.31.91 278.9-2.02 46.3 135.26 2.82 1.61-.2.3.81.5h.81l3.03-.71L669.3 741.77l125.98 62.94 5.75-.5 3.03-4.64-2.02-278.9L937 474.47l.5-1.31.2.5.3-1.71.5.5v-1.51l.5-1.21-.62.21zM363.24 584.12L463.3 484.06l-.1 141.62-48.42-24.41h-.91l.4-.1-51.03-17.05zm-34-49.72l14.32 43.17-65.87-21.89 51.55-21.28zm-55.78 11.29l31.17-62.13L325 524.41l-51.54 21.28zm13.32 24.92l55.98 18.66-93.3 93.4 37.32-112.06zm63.55 26.32l18.66 56.08-112.06 37.42 93.4-93.5zm-12.21-72.52l-24.01-47.91h141.52L355.57 576.56l-17.45-52.15zm-24.51-58.81l24.81-49.63 16.95-50.64L455.73 465.6H313.61zm48.92-108.43l52.75-17.65 48.01-24.01v142.42L362.53 357.17zm53.06-29.96L394 274.96l62.94 31.57-41.35 20.68zm-9.99 4.14l-43.88 14.63 22.29-66.88 21.59 52.25zm-55.38 13.21l-93.1-93.1 111.76 37.22-18.66 55.88zm-7.66 7.57l-55.78 18.56-37.22-111.46 93 92.9zm1.41 11.19l-14.52 43.57-51.85-21.59 66.37-21.98zm-18.56 53.56l-20.48 41.05-31.37-62.64 51.85 21.59zm-29.55 48.42l-132.04.1 105.61-52.85 26.43 52.75zm-.1 10.89l-26.33 52.55-105.2-52.55h131.53zm-20.08 92.1l-41.46 124.27-23.7-20.78 53.76-107.32 11.4 3.83zm-36.21 140l132.64-44.18 3.73 11.3-205.97 102.98 69.6-70.1zm122.46-112.16l43.37 14.42-21.38 51.54-21.99-65.96zm53.35 18.56l40.75 20.37-62.13 31.07 21.38-51.44zm48.12 29.05l.1 132.84-53.16-106.41 53.06-26.43zm0-346.18l-52.96-26.53 52.85-105.81.11 132.34zm-.61-157.46l-62.74 125.78-10.59-5.35 73.23-219.69.1 99.26zm-7.56-114.08L378.87 255.4l-101.98-51.04L455.23 26.02zm-185.9 187.42l106.01 53.16-3.73 10.99-124.47-41.46 22.19-22.69zm-11-5.45l-22.19 22.09-66.17-66.27 88.36 44.18zm-47.2 14.22l19.47 18.96 44.48 133.45-10.39 3.43-102.48-204.96 48.92 49.12zm-66.67-56.28l108.33 216.36-108.33 36.01V165.93zm113.67 226.54l5.25 10.59-117.61 58.81-1.82-31.37 114.18-38.03zM137.8 477l125.88 62.74-4.94 9.78L41.37 477.2h64.45l31.98-.2zm-3.94-43.17v31.47l-94.11-.1 94.11-31.37zM23.72 484.57l229.47 76.46L202.15 663 23.72 484.57zm181.86 196.89l22.59 22.59-67.48 67.38 44.89-89.97zm-41.96 113.78l216.26-108.23 36.11 108.23H163.62zm226.55-113.58l10.79-5.35 59.21 118.42-31.67 2.12-38.33-115.19zm73.33 219.99l-31.98-95.82h32.08l-.1 95.82zm268.31-641.01l-22.59-22.7L777 170.26l-45.19 90.38zM532.89 610.25l43.47-14.42L554.27 662l-21.38-51.75zm11.4 55.88l-62.44-31.27 41.05-20.48 21.39 51.75zm55.68-249.14l24.41 48.62H481.76l100.87-100.67 17.34 52.05zM568.7 288.28l112.16-37.42-93.5 93.6-18.66-56.18zm43.78 128.81l52.35-21.69-31.67 63.04-20.68-41.35zm-4.14-9.99l-14.73-43.98 66.98 22.29-52.25 21.69zm42.77-36.21l-56.08-18.76 93.6-93.71-37.52 112.47zm-85.84-93.5l-3.83-11.2L768.52 162.6l-24.71 24.61-45.19 45.69-133.35 44.49zm11.3 68.69l-43.88-14.73 21.59-52.25 2.32 7.46 19.97 59.52zm-53.86-18.87l-41.46-20.68 63.04-31.57-21.58 52.25zm-48.42-29.55l-.2-131.93 52.85 105.51-52.65 26.42zm-.1 17.85l49.12 24.51 51.64 17.15-100.86 100.77.1-142.43zM624.28 476.5l-24.51 49.12-17.25 51.54L481.76 476.5h142.52zm-36.92 120.23l93.5 93.4-112.16-37.32 18.66-56.08zm7.77-7.56l56.18-18.76 37.52 112.37-93.7-93.61zm-1.21-11.3l14.63-43.88 52.25 21.59-66.88 22.29zm18.76-53.86l20.58-41.05 31.57 62.54-52.15-21.49zm29.66-47.92l132.14-.1-105.71 52.85-26.43-52.75zm-.41-10.89l26.53-52.96 105.81 52.96H641.93zm19.87-91.39l41.86-125.58 23.91 20.88-54.37 108.54-11.4-3.84zm112.07-227.05L557.51 255.09 521.5 146.76h252.37zM547.32 260.44l-10.69 5.24-58.91-118.01 31.97-.3 37.63 113.07zM473.99 40.45l31.97 95.72h-32.08l.11-95.72zm.1 443.61l100.36 100.36-51.85 17.35-48.52 24.31V484.06zm.2 159.78l53.06 26.43-52.96 106.01-.1-132.44zm.3 158.16l62.94-125.88 10.49 5.35-73.12 219.68.1-67.18-.41-31.97zm7.67 114.08l76.46-229.57 101.98 51.14-178.44 178.43zm79.99-240.97l3.73-10.99 124.77 41.66-20.38 23.4-108.12-54.07zm117.1 58.8l22.49-22.49 66.98 67.18-89.47-44.69zm27.54-32.98l-44.48-133.45 11.2-3.73L777.3 771.03l-70.41-70.1zm86.04 75.24L684.7 559.81l108.23-36.01v252.37zM679.25 549.42l-5.24-10.59 118.22-59.11 2.12 31.47-115.1 38.23zm124.37-41.15v-32.08l95.62.1-95.62 31.98zm-3.93-43.17l-125.88-62.84 5.55-10.79L900.05 465l-100.36.1zM684.2 381.08l51.14-101.98 178.43 178.43-229.57-76.45z"/></g></switch></svg>